<svg version="1.0" xmlns="http://www.w3.org/2000/svg"
    width="512.000000pt" height="512.000000pt" viewBox="0 0 512.000000 512.000000"
    preserveAspectRatio="xMidYMid meet">

    <g transform="translate(0.000000,512.000000) scale(0.100000,-0.100000)"
        fill="#000000" stroke="none">
        <path
            d="M375 5006 c-92 -29 -158 -86 -197 -171 -22 -48 -23 -61 -26 -355 -2
-167 0 -320 3 -338 3 -19 17 -45 30 -58 34 -34 103 -33 142 0 l28 24 5 324 c3
177 9 330 13 339 18 35 48 39 368 41 353 3 345 2 369 74 10 28 8 40 -7 71 -10
21 -29 43 -43 50 -36 18 -629 17 -685 -1z" />
        <path
            d="M4060 5008 c-14 -7 -33 -30 -43 -51 -15 -31 -17 -43 -7 -71 24 -72
16 -71 369 -74 320 -2 350 -6 368 -41 4 -9 10 -159 13 -333 l5 -317 29 -30
c59 -61 155 -32 171 51 3 18 5 171 3 338 -3 294 -4 307 -26 355 -30 65 -92
128 -156 157 -49 22 -61 23 -376 26 -247 2 -331 -1 -350 -10z" />
        <path
            d="M2410 4510 c-658 -44 -1123 -377 -1316 -942 -65 -190 -102 -480 -89
-695 l7 -113 -422 0 c-270 0 -428 -4 -441 -10 -21 -12 -49 -60 -49 -85 0 -31
31 -82 56 -94 17 -8 156 -11 459 -11 l435 0 0 -23 c0 -40 67 -297 109 -419
125 -361 332 -702 560 -923 l51 -49 0 -162 c0 -185 -16 -266 -73 -381 -42 -83
-92 -148 -177 -228 -35 -33 -76 -72 -92 -87 -22 -21 -28 -35 -28 -71 0 -81 61
-124 134 -93 54 22 210 179 275 276 102 152 144 282 157 483 l7 106 81 -44
c328 -175 655 -179 992 -10 l101 51 7 -106 c17 -266 101 -447 301 -647 114
-114 158 -137 211 -112 37 18 68 79 59 118 -4 19 -30 50 -76 89 -137 120 -217
232 -271 379 -18 49 -22 88 -26 246 l-4 187 68 73 c245 258 429 569 556 937
33 96 83 291 93 363 l7 47 434 0 c302 0 441 3 458 11 25 12 56 63 56 94 0 21
-19 57 -39 72 -12 9 -123 12 -445 13 l-428 0 7 108 c8 130 -8 354 -36 498
-114 593 -518 999 -1115 1119 -104 22 -365 48 -429 43 -11 0 -67 -4 -125 -8z
m470 -215 c203 -36 415 -123 551 -225 37 -27 104 -89 150 -138 172 -182 275
-415 314 -710 15 -114 20 -373 9 -431 l-6 -31 -1338 0 -1337 0 -7 31 c-11 58
-6 317 9 431 40 302 142 530 323 719 208 218 426 316 827 373 72 10 414 -3
505 -19z m990 -1753 c0 -4 -13 -61 -29 -127 -148 -604 -498 -1122 -891 -1320
-306 -154 -597 -131 -903 72 -97 64 -296 266 -379 383 -180 254 -316 560 -393
880 -14 58 -25 108 -25 113 0 4 590 7 1310 7 721 0 1310 -3 1310 -8z" />
        <path
            d="M203 1728 c-12 -6 -29 -26 -38 -45 -14 -30 -16 -74 -13 -351 3 -280
6 -322 22 -357 28 -63 79 -118 137 -150 l54 -30 334 -3 c230 -2 343 0 361 8
43 18 64 71 49 124 -18 66 -19 66 -364 66 -291 0 -312 1 -342 20 -18 11 -34
21 -35 22 -1 2 -5 149 -8 326 l-5 324 -33 29 c-34 31 -78 37 -119 17z" />
        <path
            d="M4811 1726 c-48 -27 -50 -40 -51 -364 0 -188 -4 -311 -10 -323 -25
-46 -50 -49 -375 -49 -200 0 -313 -4 -327 -11 -27 -15 -49 -71 -42 -108 7 -36
36 -69 67 -76 12 -3 171 -5 352 -3 l330 3 55 31 c64 36 122 107 142 173 19 67
19 657 -1 693 -24 45 -91 61 -140 34z" />
    </g>
</svg>