<svg width="40" height="40" viewBox="0 0 40 40" fill="none" xmlns="http://www.w3.org/2000/svg">
<g clip-path="url(#clip0_11_5543)">
<path d="M35 13.3333C32.5833 13.3333 31.2333 15.7333 31.7833 17.5166L25.8666 23.4499C25.3666 23.2999 24.6333 23.2999 24.1333 23.4499L19.8833 19.1999C20.45 17.4166 19.1 14.9999 16.6666 14.9999C14.25 14.9999 12.8833 17.3999 13.45 19.1999L5.84996 26.7833C4.06663 26.2333 1.66663 27.5833 1.66663 29.9999C1.66663 31.8333 3.16663 33.3333 4.99996 33.3333C7.41663 33.3333 8.76662 30.9333 8.21663 29.1499L15.8 21.5499C16.3 21.6999 17.0333 21.6999 17.5333 21.5499L21.7833 25.7999C21.2166 27.5833 22.5666 29.9999 25 29.9999C27.4166 29.9999 28.7833 27.5999 28.2166 25.7999L34.15 19.8833C35.9333 20.4333 38.3333 19.0833 38.3333 16.6666C38.3333 14.8333 36.8333 13.3333 35 13.3333Z" fill="#9397FC"/>
<path d="M25 15L26.5667 11.55L30 10L26.5667 8.45L25 5L23.4667 8.45L20 10L23.4667 11.55L25 15Z" fill="#9397FC"/>
<path d="M5.83329 18.3333L6.66663 15L9.99996 14.1667L6.66663 13.3333L5.83329 10L4.99996 13.3333L1.66663 14.1667L4.99996 15L5.83329 18.3333Z" fill="#9397FC"/>
</g>
<defs>
<clipPath id="clip0_11_5543">
<rect width="40" height="40" fill="white"/>
</clipPath>
</defs>
</svg>
